{"title":"The Lies We Tell But The Secrets We Keep Part 3 720p TSRip x264","uid":11260140,"size":2269426308,"categoryP":"video","categoryS":"hd___movies","magnet":"?xt=urn:btih:115afe80f1815132373b6292e22b04226a468f2f&amp;dn=The+Lies+We+Tell+But+The+Secrets+We+Keep+Part+3+720p+TSRip+x264+&amp;tr=udp%3A%2F%2Ftracker.openbittorrent.com%3A80&amp;tr=udp%3A%2F%2Fopen.demonii.com%3A1337&amp;tr=udp%3A%2F%2Ftracker.coppersurfer.tk%3A6969&amp;tr=udp%3A%2F%2Fexodus.desync.com%3A6969","seeders":3,"leechers":2,"uploader":"shawnmurthy","files":-1,"time":1413952788,"description":"PIMP4003 PICTURES PRESENTS....A PIMP4003 EXCLUSIVE\n &lt;a href=&quot;\nhttp://i.imgur.com/fW5GLTr.jpg&quot; rel=&quot;nofollow&quot; target=&quot;_NEW&quot;&gt;\nhttp://i.imgur.com/fW5GLTr.jpg&lt;/a&gt;\n\nI NEVER HEARD OF THIS MOVIE BUT THIS WAS A REQUEST AND I COULD NOT FIND THE PROPER IMDB LINK FOR THE PART 3 ONE SO I ONLY PUT WHAT I COULD FIND... ............ENJOY.....PIMP4003\n &lt;a href=&quot;\nhttp://i.imgur.com/WO8tsQU.jpg&quot; rel=&quot;nofollow&quot; target=&quot;_NEW&quot;&gt;\nhttp://i.imgur.com/WO8tsQU.jpg&lt;/a&gt;\n\nFOR REQUESTS, EXCLUSIVE MOVIES AND SUPER FAST SPEEDS AND FOR SCREENSHOTS AND SAMPLE....CLICK BELOW LINK\n\nThe Lies We Tell But The Secrets We Keep Part 3 720p TSRip x264 Pimp4003\n\nENJOY\n\nPIMP4003\n\nVideo\nID                                       : 1\nFormat                                   : MPEG-4 Visual\nFormat profile                           : Simple@L3\nFormat settings, BVOP                    : No\nFormat settings, QPel                    : No\nFormat settings, GMC                     : No warppoints\nFormat settings, Matrix                  : Default (H.263)\nCodec ID                                 : 20\nDuration                                 : 1h 59mn\nBit rate                                 : 2 393 Kbps\nWidth                                    : 1 280 pixels\nHeight                                   : 536 pixels\nDisplay aspect ratio                     : 2.40:1\nFrame rate mode                          : Variable\nFrame rate                               : 59.940 fps\nMinimum frame rate                       : 59.916 fps\nMaximum frame rate                       : 60.157 fps\nColor space                              : YUV\nChroma subsampling                       : 4:2:0\nBit depth                                : 8 bits\nScan type                                : Progressive\nCompression mode                         : Lossy\nBits/(Pixel*Frame)                       : 0.058\nStream size                              : 2.00 GiB (95%)\nWriting library                          : ZJMedia MPEG Encoder\n\nAudio\nID                                       : 2\nFormat                                   : AAC\nFormat/Info                              : Advanced Audio Codec\nFormat profile                           : LC\nCodec ID                                 : 40\nDuration                                 : 1h 59mn\nBit rate mode                            : Variable\nBit rate                                 : 128 Kbps\nChannel(s)                               : 2 channels\nChannel positions                        : Front: L R\nSampling rate                            : 48.0 KHz\nCompression mode                         : Lossy\nStream size                              : 110 MiB (5%)\n\n[IMG]http://i.imgur.com/5PDnFOe.png[/IMG]\n[IMG]http://i.imgur.com/G62EhL8.jpg[/IMG]\n[IMG]http://i.imgur.com/8iE1BkK.png[/IMG]","torrent":{"xt":"urn:btih:115afe80f1815132373b6292e22b04226a468f2f","amp;dn":"The+Lies+We+Tell+But+The+Secrets+We+Keep+Part+3+720p+TSRip+x264+","amp;tr":["udp%3A%2F%2Ftracker.openbittorrent.com%3A80","udp%3A%2F%2Fopen.demonii.com%3A1337","udp%3A%2F%2Ftracker.coppersurfer.tk%3A6969","udp%3A%2F%2Fexodus.desync.com%3A6969"],"infoHash":"115afe80f1815132373b6292e22b04226a468f2f","infoHashBuffer":{"type":"Buffer","data":[17,90,254,128,241,129,81,50,55,59,98,146,226,43,4,34,106,70,143,47]},"announce":[],"urlList":[]}}